# xmcd CD database file
#
# Track frame offsets:
#	150
#	27715
#	57352
#	86864
#	143532
#	177762
#	217780
#	221891
#
# Disc length: 3462 seconds
#
# Revision: 0
# Processed by: cddbd v1.5.2PL0 Copyright (c) Steve Scherf et al.
# Submitted via: CDex 1.70beta3
#
DISCID=740d8408
DTITLE=森島　はるか編 - アマガミ　ドラマCD vol5
DYEAR=2010
DGENRE=ドラマCD
TTITLE0=甘いのはお好き？
TTITLE1=ブルーなのは誰のせい？
TTITLE2=思い出作り
TTITLE3=ガールズトーク
TTITLE4=あなたに出会えて
TTITLE5=純一、はじめてのおみまい！
TTITLE6=キャスト紹介
TTITLE7=フリートーク
EXTD=YEAR: 2010
EXTT0=
EXTT1=
EXTT2=
EXTT3=
EXTT4=
EXTT5=
EXTT6=
EXTT7=
PLAYORDER=
